<mxfile host="Electron" agent="Mozilla/5.0 (Windows NT 10.0; Win64; x64) AppleWebKit/537.36 (KHTML, like Gecko) draw.io/24.7.8 Chrome/128.0.6613.36 Electron/32.0.1 Safari/537.36" version="24.7.8">
  <diagram name="Page-1" id="MAllqAfLBLea2LckqZOi">
    <mxGraphModel dx="1434" dy="844" grid="1" gridSize="10" guides="1" tooltips="1" connect="1" arrows="1" fold="1" page="1" pageScale="1" pageWidth="850" pageHeight="1100" math="0" shadow="0">
      <root>
        <mxCell id="0" />
        <mxCell id="1" parent="0" />
        <mxCell id="USOqtzKKuF3D1rq9zsue-1" value="&lt;b&gt;Facility 1&lt;/b&gt;" style="whiteSpace=wrap;html=1;aspect=fixed;" parent="1" vertex="1">
          <mxGeometry x="252.5" y="278" width="80" height="80" as="geometry" />
        </mxCell>
        <mxCell id="USOqtzKKuF3D1rq9zsue-2" value="&lt;b&gt;Facility 2&lt;/b&gt;" style="whiteSpace=wrap;html=1;aspect=fixed;" parent="1" vertex="1">
          <mxGeometry x="253.5" y="387" width="78" height="78" as="geometry" />
        </mxCell>
        <mxCell id="USOqtzKKuF3D1rq9zsue-3" value="&lt;b&gt;Facility n&lt;/b&gt;" style="whiteSpace=wrap;html=1;aspect=fixed;" parent="1" vertex="1">
          <mxGeometry x="252.5" y="528" width="80" height="80" as="geometry" />
        </mxCell>
        <mxCell id="USOqtzKKuF3D1rq9zsue-4" value="" style="endArrow=none;dashed=1;html=1;rounded=0;" parent="1" edge="1">
          <mxGeometry width="50" height="50" relative="1" as="geometry">
            <mxPoint x="292.5" y="518" as="sourcePoint" />
            <mxPoint x="292.5" y="478" as="targetPoint" />
          </mxGeometry>
        </mxCell>
        <mxCell id="USOqtzKKuF3D1rq9zsue-5" value="&lt;b&gt;Database&lt;/b&gt;" style="ellipse;whiteSpace=wrap;html=1;" parent="1" vertex="1">
          <mxGeometry x="432.5" y="400.38" width="122" height="80" as="geometry" />
        </mxCell>
        <mxCell id="USOqtzKKuF3D1rq9zsue-11" value="Database API" style="rounded=0;whiteSpace=wrap;html=1;" parent="1" vertex="1">
          <mxGeometry x="378.5" y="648" width="120" height="60" as="geometry" />
        </mxCell>
        <mxCell id="USOqtzKKuF3D1rq9zsue-13" value="User" style="shape=umlActor;verticalLabelPosition=bottom;verticalAlign=top;html=1;outlineConnect=0;" parent="1" vertex="1">
          <mxGeometry x="578.5" y="648" width="30" height="60" as="geometry" />
        </mxCell>
        <mxCell id="whZAiJy7x9WykCE-Jzfa-12" value="Connection A (SSL)" style="swimlane;fontStyle=0;childLayout=stackLayout;horizontal=1;startSize=30;horizontalStack=0;resizeParent=1;resizeParentMax=0;resizeLast=0;collapsible=1;marginBottom=0;whiteSpace=wrap;html=1;" parent="1" vertex="1">
          <mxGeometry x="168" y="60" width="160" height="80" as="geometry" />
        </mxCell>
        <mxCell id="whZAiJy7x9WykCE-Jzfa-13" value="&lt;span style=&quot;background-color: initial;&quot;&gt;- Sensor data gets sent from each facility to the database&amp;nbsp;&lt;/span&gt;" style="text;strokeColor=none;fillColor=none;align=left;verticalAlign=middle;spacingLeft=4;spacingRight=4;overflow=hidden;points=[[0,0.5],[1,0.5]];portConstraint=eastwest;rotatable=0;whiteSpace=wrap;html=1;" parent="whZAiJy7x9WykCE-Jzfa-12" vertex="1">
          <mxGeometry y="30" width="160" height="50" as="geometry" />
        </mxCell>
        <mxCell id="whZAiJy7x9WykCE-Jzfa-17" value="Connection C (SSL)" style="swimlane;fontStyle=0;childLayout=stackLayout;horizontal=1;startSize=26;horizontalStack=0;resizeParent=1;resizeParentMax=0;resizeLast=0;collapsible=1;marginBottom=0;align=center;fontSize=14;" parent="1" vertex="1">
          <mxGeometry x="348" y="60" width="160" height="130" as="geometry" />
        </mxCell>
        <mxCell id="fNKGOpvYaMVU7Y808GAE-1" value="- User credentials get sent from the database to the API for verification" style="text;strokeColor=none;fillColor=none;spacingLeft=4;spacingRight=4;overflow=hidden;rotatable=0;points=[[0,0.5],[1,0.5]];portConstraint=eastwest;fontSize=12;whiteSpace=wrap;html=1;" parent="whZAiJy7x9WykCE-Jzfa-17" vertex="1">
          <mxGeometry y="26" width="160" height="54" as="geometry" />
        </mxCell>
        <mxCell id="whZAiJy7x9WykCE-Jzfa-18" value="- Queried sensor data gets sent from the database to the API for formatting" style="text;strokeColor=none;fillColor=none;spacingLeft=4;spacingRight=4;overflow=hidden;rotatable=0;points=[[0,0.5],[1,0.5]];portConstraint=eastwest;fontSize=12;whiteSpace=wrap;html=1;" parent="whZAiJy7x9WykCE-Jzfa-17" vertex="1">
          <mxGeometry y="80" width="160" height="50" as="geometry" />
        </mxCell>
        <mxCell id="whZAiJy7x9WykCE-Jzfa-25" value="Connection D (HTTPS)" style="swimlane;fontStyle=0;childLayout=stackLayout;horizontal=1;startSize=26;horizontalStack=0;resizeParent=1;resizeParentMax=0;resizeLast=0;collapsible=1;marginBottom=0;align=center;fontSize=14;" parent="1" vertex="1">
          <mxGeometry x="523" y="60" width="160" height="230" as="geometry">
            <mxRectangle x="450" y="182" width="130" height="30" as="alternateBounds" />
          </mxGeometry>
        </mxCell>
        <mxCell id="whZAiJy7x9WykCE-Jzfa-26" value="- Username and password gets sent from the user to the API for login" style="text;strokeColor=none;fillColor=none;spacingLeft=4;spacingRight=4;overflow=hidden;rotatable=0;points=[[0,0.5],[1,0.5]];portConstraint=eastwest;fontSize=12;whiteSpace=wrap;html=1;" parent="whZAiJy7x9WykCE-Jzfa-25" vertex="1">
          <mxGeometry y="26" width="160" height="54" as="geometry" />
        </mxCell>
        <mxCell id="whZAiJy7x9WykCE-Jzfa-27" value="- An API token gets sent from the API to the user upon successful login&lt;span style=&quot;background-color: initial;&quot;&gt;&amp;nbsp;&lt;/span&gt;" style="text;strokeColor=none;fillColor=none;spacingLeft=4;spacingRight=4;overflow=hidden;rotatable=0;points=[[0,0.5],[1,0.5]];portConstraint=eastwest;fontSize=12;whiteSpace=wrap;html=1;" parent="whZAiJy7x9WykCE-Jzfa-25" vertex="1">
          <mxGeometry y="80" width="160" height="50" as="geometry" />
        </mxCell>
        <mxCell id="whZAiJy7x9WykCE-Jzfa-28" value="&lt;div&gt;- A query gets sent from the user to the API along w/ a valid API token&lt;/div&gt;" style="text;strokeColor=none;fillColor=none;spacingLeft=4;spacingRight=4;overflow=hidden;rotatable=0;points=[[0,0.5],[1,0.5]];portConstraint=eastwest;fontSize=12;whiteSpace=wrap;html=1;" parent="whZAiJy7x9WykCE-Jzfa-25" vertex="1">
          <mxGeometry y="130" width="160" height="50" as="geometry" />
        </mxCell>
        <mxCell id="whZAiJy7x9WykCE-Jzfa-33" value="- Formatted sensor data gets returned to the user from the API" style="text;strokeColor=none;fillColor=none;spacingLeft=4;spacingRight=4;overflow=hidden;rotatable=0;points=[[0,0.5],[1,0.5]];portConstraint=eastwest;fontSize=12;whiteSpace=wrap;html=1;" parent="whZAiJy7x9WykCE-Jzfa-25" vertex="1">
          <mxGeometry y="180" width="160" height="50" as="geometry" />
        </mxCell>
        <mxCell id="BFYfaFStXxI81xijr-fr-5" value="" style="rounded=0;whiteSpace=wrap;html=1;fillColor=none;dashed=1;dashPattern=1 4;" parent="1" vertex="1">
          <mxGeometry x="232.5" y="260" width="120" height="388" as="geometry" />
        </mxCell>
        <mxCell id="BFYfaFStXxI81xijr-fr-6" value="&lt;b&gt;&lt;font style=&quot;font-size: 14px;&quot; color=&quot;#990000&quot;&gt;Input&lt;/font&gt;&lt;/b&gt;" style="text;html=1;align=center;verticalAlign=middle;whiteSpace=wrap;rounded=0;" parent="1" vertex="1">
          <mxGeometry x="262.5" y="618" width="60" height="30" as="geometry" />
        </mxCell>
        <mxCell id="BFYfaFStXxI81xijr-fr-7" value="" style="rounded=0;whiteSpace=wrap;html=1;fillColor=none;dashed=1;dashPattern=1 4;" parent="1" vertex="1">
          <mxGeometry x="412.5" y="392.88" width="160" height="122.25" as="geometry" />
        </mxCell>
        <mxCell id="BFYfaFStXxI81xijr-fr-8" value="&lt;b&gt;&lt;font color=&quot;#990000&quot; style=&quot;font-size: 14px;&quot;&gt;Storage&lt;/font&gt;&lt;/b&gt;" style="text;html=1;align=center;verticalAlign=middle;whiteSpace=wrap;rounded=0;" parent="1" vertex="1">
          <mxGeometry x="462.5" y="485.13" width="60" height="30" as="geometry" />
        </mxCell>
        <mxCell id="BFYfaFStXxI81xijr-fr-9" value="" style="rounded=0;whiteSpace=wrap;html=1;fillColor=none;dashed=1;dashPattern=1 4;" parent="1" vertex="1">
          <mxGeometry x="363.5" y="640" width="260" height="130" as="geometry" />
        </mxCell>
        <mxCell id="BFYfaFStXxI81xijr-fr-10" value="&lt;b&gt;&lt;font color=&quot;#990000&quot; style=&quot;font-size: 14px;&quot;&gt;Output&lt;/font&gt;&lt;/b&gt;" style="text;html=1;align=center;verticalAlign=middle;whiteSpace=wrap;rounded=0;" parent="1" vertex="1">
          <mxGeometry x="463.5" y="740" width="60" height="30" as="geometry" />
        </mxCell>
        <mxCell id="BFYfaFStXxI81xijr-fr-11" value="&lt;font style=&quot;font-size: 20px;&quot;&gt;&lt;b&gt;Team GR IoT Data Aggregation Project&lt;/b&gt;&lt;/font&gt;" style="text;html=1;align=center;verticalAlign=middle;resizable=0;points=[];autosize=1;strokeColor=none;fillColor=none;" parent="1" vertex="1">
          <mxGeometry x="230" y="10" width="390" height="40" as="geometry" />
        </mxCell>
        <mxCell id="tuzLL6Tt9vCkhnduXRWb-7" value="D" style="endArrow=classic;startArrow=classic;html=1;rounded=0;exitX=1;exitY=0.5;exitDx=0;exitDy=0;entryX=0.5;entryY=0.5;entryDx=0;entryDy=0;entryPerimeter=0;fontSize=12;fontStyle=1" parent="1" source="USOqtzKKuF3D1rq9zsue-11" target="USOqtzKKuF3D1rq9zsue-13" edge="1">
          <mxGeometry width="50" height="50" relative="1" as="geometry">
            <mxPoint x="543.5" y="639" as="sourcePoint" />
            <mxPoint x="593.5" y="589" as="targetPoint" />
          </mxGeometry>
        </mxCell>
        <mxCell id="tuzLL6Tt9vCkhnduXRWb-9" value="Connection B (HTTPS)" style="swimlane;fontStyle=0;childLayout=stackLayout;horizontal=1;startSize=30;horizontalStack=0;resizeParent=1;resizeParentMax=0;resizeLast=0;collapsible=1;marginBottom=0;whiteSpace=wrap;html=1;" parent="1" vertex="1">
          <mxGeometry x="168" y="153" width="160" height="80" as="geometry" />
        </mxCell>
        <mxCell id="tuzLL6Tt9vCkhnduXRWb-10" value="- List of device failures get sent to maintenance staff via a GroupMe chat bot" style="text;strokeColor=none;fillColor=none;align=left;verticalAlign=middle;spacingLeft=4;spacingRight=4;overflow=hidden;points=[[0,0.5],[1,0.5]];portConstraint=eastwest;rotatable=0;whiteSpace=wrap;html=1;" parent="tuzLL6Tt9vCkhnduXRWb-9" vertex="1">
          <mxGeometry y="30" width="160" height="50" as="geometry" />
        </mxCell>
        <mxCell id="KRtY-ehNDQ33mKzoGs-n-3" value="A" style="endArrow=classic;html=1;rounded=0;exitX=1;exitY=0.5;exitDx=0;exitDy=0;entryX=0;entryY=0.5;entryDx=0;entryDy=0;fontSize=12;fontStyle=1" edge="1" parent="1" source="BFYfaFStXxI81xijr-fr-5" target="BFYfaFStXxI81xijr-fr-7">
          <mxGeometry width="50" height="50" relative="1" as="geometry">
            <mxPoint x="434.5" y="610" as="sourcePoint" />
            <mxPoint x="484.5" y="560" as="targetPoint" />
          </mxGeometry>
        </mxCell>
        <mxCell id="KRtY-ehNDQ33mKzoGs-n-4" value="B" style="endArrow=classic;html=1;rounded=0;exitX=0.5;exitY=1;exitDx=0;exitDy=0;entryX=0;entryY=0.5;entryDx=0;entryDy=0;edgeStyle=orthogonalEdgeStyle;fontSize=12;fontStyle=1" edge="1" parent="1" source="BFYfaFStXxI81xijr-fr-5" target="BFYfaFStXxI81xijr-fr-9">
          <mxGeometry x="0.3906" width="50" height="50" relative="1" as="geometry">
            <mxPoint x="224.5" y="770" as="sourcePoint" />
            <mxPoint x="274.5" y="720" as="targetPoint" />
            <mxPoint as="offset" />
          </mxGeometry>
        </mxCell>
        <mxCell id="KRtY-ehNDQ33mKzoGs-n-5" value="C" style="endArrow=classic;startArrow=classic;html=1;rounded=0;entryX=0.5;entryY=1;entryDx=0;entryDy=0;exitX=0.5;exitY=0;exitDx=0;exitDy=0;fontSize=12;fontStyle=1" edge="1" parent="1" source="BFYfaFStXxI81xijr-fr-9" target="BFYfaFStXxI81xijr-fr-7">
          <mxGeometry width="50" height="50" relative="1" as="geometry">
            <mxPoint x="554.5" y="620" as="sourcePoint" />
            <mxPoint x="604.5" y="570" as="targetPoint" />
          </mxGeometry>
        </mxCell>
      </root>
    </mxGraphModel>
  </diagram>
</mxfile>
